<svg width="64" height="18" viewBox="0 0 64 18" fill="none" xmlns="http://www.w3.org/2000/svg">
<g clip-path="url(#clip0_101_51)">
<path fill-rule="evenodd" clip-rule="evenodd" d="M8.06018 17.7855H8.03401L0 9.75148V8.12591L9.57783 17.7037C9.09511 17.7582 8.58923 17.7855 8.06018 17.7855ZM0 11.377L6.40848 17.7855H4.78302L0 13.0025V11.377ZM0 14.628L3.15749 17.7855H0.718391C0.321634 17.7855 0 17.4639 0 17.0671V14.628ZM0 0.71839V6.50038L10.9544 17.4548C11.5793 17.2829 12.1309 17.015 12.6091 16.6513C13.1159 16.2732 13.5382 15.8066 13.8761 15.2516C14.407 14.415 14.6724 13.4698 14.6724 12.4161C14.6724 11.3945 14.4391 10.5257 13.9726 9.80977C13.5141 9.09385 12.8303 8.57098 11.9213 8.24118C12.5166 7.9355 12.9671 7.59765 13.2728 7.22762C13.8198 6.568 14.0933 5.69522 14.0933 4.60927C14.0933 3.55549 13.8198 2.65053 13.2728 1.89438C12.3638 0.663638 10.8193 0.0321764 8.63936 0H0.718391C0.321634 0 0 0.321634 0 0.71839ZM22.8766 15.7543V2.93155H25.1432V7.72756H25.2371C25.354 7.49381 25.5188 7.24546 25.7317 6.98249C25.9446 6.71535 26.2326 6.48786 26.5958 6.30003C26.9589 6.10802 27.4222 6.01202 27.9857 6.01202C28.7287 6.01202 29.3986 6.20194 29.9955 6.58178C30.5966 6.95745 31.0725 7.51468 31.4231 8.2535C31.7779 8.98813 31.9553 9.88974 31.9553 10.9583C31.9553 12.0143 31.782 12.9118 31.4356 13.6506C31.0892 14.3894 30.6175 14.9529 30.0206 15.3411C29.4237 15.7293 28.7475 15.9234 27.992 15.9234C27.441 15.9234 26.9839 15.8315 26.6208 15.6479C26.2577 15.4642 25.9655 15.243 25.7442 14.9842C25.5272 14.7212 25.3581 14.4729 25.2371 14.2391H25.1056V15.7543H22.8766ZM25.0993 10.9458C25.0993 11.5677 25.187 12.1124 25.3623 12.5799C25.5418 13.0474 25.7985 13.4127 26.1324 13.6756C26.4705 13.9344 26.8796 14.0638 27.3596 14.0638C27.8605 14.0638 28.28 13.9302 28.6181 13.6631C28.9562 13.3918 29.2108 13.0224 29.382 12.5549C29.5573 12.0832 29.6449 11.5468 29.6449 10.9458C29.6449 10.3489 29.5594 9.81878 29.3882 9.35545C29.2171 8.89213 28.9625 8.52899 28.6244 8.26602C28.2863 8.00305 27.8647 7.87157 27.3596 7.87157C26.8754 7.87157 26.4643 7.99888 26.1262 8.2535C25.7881 8.50812 25.5314 8.865 25.3561 9.32415C25.1849 9.7833 25.0993 10.3238 25.0993 10.9458ZM35.2671 2.93155V15.7543H33.0006V2.93155H35.2671ZM37.837 15.6228C38.3253 15.8399 38.8742 15.9484 39.4836 15.9484C39.9845 15.9484 40.4207 15.8795 40.7922 15.7418C41.1679 15.5999 41.4789 15.4141 41.7251 15.1846C41.9756 14.9508 42.1697 14.7004 42.3074 14.4332H42.3825V15.7543H44.5614V9.31789C44.5614 8.67925 44.4445 8.14706 44.2108 7.7213C43.9812 7.29555 43.6765 6.95953 43.2967 6.71326C42.9168 6.46282 42.4973 6.28333 42.0382 6.17481C41.579 6.06628 41.1178 6.01202 40.6545 6.01202C39.9824 6.01202 39.3689 6.1122 38.8137 6.31255C38.2585 6.50873 37.789 6.80509 37.4049 7.20163C37.0209 7.59399 36.7454 8.08236 36.5785 8.66673L38.6947 8.96727C38.8074 8.63751 39.0245 8.35159 39.3459 8.10949C39.6715 7.8674 40.1118 7.74635 40.667 7.74635C41.1929 7.74635 41.5957 7.87574 41.8754 8.13454C42.1551 8.39333 42.2949 8.75856 42.2949 9.23023V9.2678C42.2949 9.48485 42.2135 9.64555 42.0507 9.7499C41.8921 9.85008 41.6375 9.92522 41.2868 9.9753C40.9362 10.0212 40.4792 10.0734 39.9157 10.1318C39.4482 10.1819 38.9953 10.2633 38.557 10.376C38.1229 10.4845 37.7326 10.6452 37.3862 10.8581C37.0397 11.071 36.7663 11.3548 36.566 11.7096C36.3656 12.0644 36.2654 12.5131 36.2654 13.0558C36.2654 13.6861 36.4053 14.2162 36.6849 14.6461C36.9688 15.076 37.3528 15.4016 37.837 15.6228ZM41.2555 14.0137C40.9216 14.1932 40.5272 14.283 40.0722 14.283C39.6005 14.283 39.2123 14.1765 38.9076 13.9636C38.6029 13.7508 38.4506 13.4356 38.4506 13.0182C38.4506 12.726 38.5278 12.4881 38.6822 12.3044C38.8367 12.1166 39.0474 11.9705 39.3146 11.8662C39.5817 11.7618 39.8844 11.6867 40.2225 11.6408C40.3727 11.6199 40.5501 11.5948 40.7546 11.5656C40.9592 11.5364 41.1658 11.503 41.3745 11.4655C41.5832 11.4279 41.771 11.3841 41.938 11.334C42.1091 11.2839 42.2302 11.2296 42.3011 11.1712V12.3044C42.3011 12.6592 42.2093 12.9869 42.0257 13.2874C41.8462 13.588 41.5895 13.8301 41.2555 14.0137ZM50.1538 15.9422C49.1938 15.9422 48.3694 15.7314 47.6807 15.3098C46.9961 14.8882 46.4681 14.3059 46.0966 13.5629C45.7293 12.8158 45.5457 11.9559 45.5457 10.9833C45.5457 10.0066 45.7335 9.14466 46.1092 8.3975C46.4848 7.64617 47.0149 7.0618 47.6995 6.64439C48.3882 6.22281 49.2021 6.01202 50.1413 6.01202C50.9219 6.01202 51.6127 6.15602 52.2137 6.44403C52.819 6.72787 53.3011 7.13067 53.6601 7.65243C54.019 8.17002 54.2236 8.77526 54.2737 9.46815H52.1073C52.0197 9.00483 51.8109 8.61873 51.4812 8.30985C51.1556 7.99679 50.7194 7.84026 50.1726 7.84026C49.7093 7.84026 49.3023 7.96549 48.9517 8.21593C48.6011 8.4622 48.3277 8.817 48.1315 9.28032C47.9395 9.74364 47.8435 10.2988 47.8435 10.9458C47.8435 11.6011 47.9395 12.1646 48.1315 12.6363C48.3235 13.1038 48.5927 13.4648 48.9392 13.7195C49.2898 13.9699 49.701 14.0951 50.1726 14.0951C50.5065 14.0951 50.805 14.0325 51.068 13.9073C51.3351 13.7779 51.5584 13.5921 51.7379 13.35C51.9174 13.108 52.0405 12.8137 52.1073 12.4672H54.2737C54.2194 13.1476 54.019 13.7508 53.6726 14.2767C53.3261 14.7985 52.8545 15.2075 52.2576 15.5039C51.6607 15.7961 50.9594 15.9422 50.1538 15.9422ZM57.5197 12.5217V15.7543H55.2532V2.93155H57.5197V10.0003H57.6763L61.1324 6.13724H63.7809L60.0524 10.2885L64 15.7543H61.2889L58.3443 11.6378L57.5197 12.5217Z" fill="black"/>
</g>
<defs>
<clipPath id="clip0_101_51">
<rect width="64" height="17.7855" fill="white"/>
</clipPath>
</defs>
</svg>
