<svg width="32" height="36" viewBox="0 0 32 36" fill="none" xmlns="http://www.w3.org/2000/svg">
<path fill-rule="evenodd" clip-rule="evenodd" d="M19.0157 5.29321C17.0998 4.4996 15.027 4.15738 12.9576 4.293C10.8883 4.42865 8.87789 5.03849 7.08194 6.07537L5.26989 7.12155L3.17752 3.49749L4.98957 2.4513C7.34142 1.09349 9.97409 0.294853 12.6839 0.117259C15.3938 -0.060366 18.1082 0.387786 20.6171 1.42701C23.1261 2.46627 25.3623 4.06873 27.1529 6.11049C28.9433 8.15222 30.2403 10.5785 30.9433 13.2017C31.646 15.8248 31.7362 18.5745 31.2063 21.2379C30.6765 23.9014 29.5411 26.4074 27.8878 28.5618C26.2345 30.7163 24.108 32.4617 21.6724 33.6627C19.2368 34.8637 16.0952 35.4885 13.8419 35.4885C11.5885 35.4885 10.2727 35.1505 8.54475 34.4349C6.86539 33.7393 5.33951 32.7199 4.05416 31.4345C2.76884 30.1491 1.74928 28.623 1.05365 26.9436C0.358052 25.2644 0 23.4645 0 21.6468C0 19.829 0.358052 18.0291 1.05365 16.3497C1.74928 14.6704 2.76884 13.1445 4.05416 11.8591C5.33951 10.5738 6.86539 9.55423 8.54475 8.85863C10.2241 8.163 12.0241 7.80498 13.8418 7.80498C15.6595 7.80498 17.4594 8.163 19.1388 8.85863C20.8182 9.55423 22.3441 10.5738 23.6294 11.8591C24.9147 13.1445 25.9342 14.6704 26.6298 16.3497C26.9292 17.0721 27.1658 17.8168 27.3387 18.5756C27.423 17.1351 27.2765 15.6863 26.9012 14.2847C26.3643 12.2816 25.374 10.4288 24.0067 8.86967C22.6393 7.31051 20.9316 6.0868 19.0157 5.29321ZM5.48437 26.4853C5.72171 21.9865 9.44476 18.4117 14.0027 18.4117C18.3845 18.4117 21.9947 21.7155 22.4781 25.968C22.5806 25.7631 22.6759 25.5545 22.7637 25.3423C23.2491 24.1707 23.4988 22.915 23.4988 21.6468C23.4988 20.3786 23.2491 19.1228 22.7637 17.9512C22.2784 16.7795 21.5671 15.7149 20.6703 14.8182C19.7736 13.9214 18.709 13.2101 17.5374 12.7248C16.3657 12.2395 15.11 11.9897 13.8418 11.9897C12.5736 11.9897 11.3178 12.2395 10.1462 12.7248C8.97456 13.2101 7.90996 13.9214 7.01321 14.8182C6.11649 15.7149 5.40515 16.7795 4.91982 17.9512C4.43452 19.1228 4.18472 20.3786 4.18472 21.6468C4.18472 22.915 4.43452 24.1707 4.91982 25.3423C5.08299 25.7362 5.27166 26.118 5.48437 26.4853ZM18.3484 26.942C18.3484 29.3421 16.4028 31.2877 14.0027 31.2877C11.6027 31.2877 9.65705 29.3421 9.65705 26.942C9.65705 24.5421 11.6027 22.5964 14.0027 22.5964C16.4028 22.5964 18.3484 24.5421 18.3484 26.942Z" fill="#5F6177"/>
</svg>
