<svg width="155" height="155" viewBox="0 0 155 155" fill="none" xmlns="http://www.w3.org/2000/svg">
<rect width="155" height="155" fill="#EB0B2B"/>
<path d="M61.7415 44.0536C61.7415 43.217 62.3645 42.5114 63.1946 42.4076L73.1473 41.1635C74.1373 41.0398 75.0118 41.8117 75.0118 42.8095V75.5446C75.0118 76.5423 74.1373 77.3143 73.1473 77.1906L63.1946 75.9465C62.3645 75.8427 61.7415 75.1371 61.7415 74.3005V44.0536Z" fill="black"/>
<path d="M41.8362 48.2005C41.8362 47.364 42.4591 46.6583 43.2892 46.5546L53.2419 45.3105C54.2319 45.1867 55.1064 45.9587 55.1064 46.9564V73.0564C55.1064 74.0542 54.2319 74.8261 53.2419 74.7024L43.2892 73.4583C42.4591 73.3545 41.8362 72.6489 41.8362 71.8123V48.2005Z" fill="black"/>
<path d="M93.6607 43.9339C94.3991 44.1185 94.9171 44.782 94.9171 45.5432V59.3715C94.9171 60.208 94.2942 60.9137 93.4641 61.0174L83.5114 62.2615C82.5214 62.3853 81.6469 61.6133 81.6469 60.6156V43.055C81.6469 41.9758 82.6611 41.184 83.708 41.4457L93.6607 43.9339Z" fill="black"/>
<path d="M113.164 49.6901C113.164 48.9289 112.646 48.2655 111.907 48.0808L101.955 45.5927C100.908 45.3309 99.8935 46.1228 99.8935 47.2019V59.7862C99.8935 60.7839 100.768 61.5559 101.758 61.4321L111.711 60.1881C112.541 60.0843 113.164 59.3786 113.164 58.5421V49.6901Z" fill="black"/>
<path d="M113.164 66.6415L80.8175 67.4709C81.2855 73.555 86.3588 78.253 92.4608 78.253H99.8935V85.3125L41.8362 79.9118V114.494L113.164 109.517V66.6415Z" fill="black"/>
</svg>
