<svg width="155" height="155" viewBox="0 0 155 155" fill="none" xmlns="http://www.w3.org/2000/svg">
<rect width="155" height="155" fill="#DE9931"/>
<path fill-rule="evenodd" clip-rule="evenodd" d="M77.3684 34.9779C53.9566 34.9779 34.9775 53.9569 34.9775 77.3687C34.9775 100.781 53.9566 119.76 77.3684 119.76C100.78 119.76 119.759 100.781 119.759 77.3687C119.759 53.9569 100.78 34.9779 77.3684 34.9779ZM44.483 77.3687C44.483 59.2066 59.2063 44.4833 77.3684 44.4833C95.5305 44.4833 110.254 59.2066 110.254 77.3687C110.254 93.9439 97.9911 107.655 82.043 109.924V102.671L90.4836 99.5546C95.3617 97.7538 98.6014 93.1046 98.6014 87.9047V73.622C98.6014 70.9972 96.4735 68.8693 93.8486 68.8693C91.2238 68.8693 89.0959 70.9972 89.0959 73.622V87.9047C89.0959 89.1244 88.336 90.215 87.1918 90.6374L82.043 92.5381V54.918C82.043 52.2932 79.9151 50.1653 77.2903 50.1653C74.6654 50.1653 72.5376 52.2932 72.5376 54.918V75.3105L67.5426 73.4665C66.3984 73.0441 65.6385 71.9535 65.6385 70.7338V64.5768C65.6385 61.9519 63.5106 59.8241 60.8857 59.8241C58.2609 59.8241 56.133 61.9519 56.133 64.5768V70.7338C56.133 75.9337 59.3726 80.583 64.2507 82.3838L72.5376 85.4429V109.902C56.6657 107.565 44.483 93.8897 44.483 77.3687Z" fill="white"/>
</svg>
