<svg width="270" height="332" viewBox="0 0 270 332" fill="none" xmlns="http://www.w3.org/2000/svg">
<g clip-path="url(#clip0_112_211)">
<mask id="mask0_112_211" style="mask-type:alpha" maskUnits="userSpaceOnUse" x="0" y="0" width="270" height="354">
<rect width="270" height="354" fill="#F5F5F8"/>
</mask>
<g mask="url(#mask0_112_211)">
<rect width="104.299" height="110.273" rx="18.2156" transform="matrix(0.878817 0.477159 -0.646257 0.76312 1.763 -88.5979)" fill="#FFC700"/>
<path d="M33.8889 -43.0074L-15.5253 -29.907L8.09971 -17.0797L-9.9681 -0.269619L39.4461 -13.37L15.8211 -26.1973L33.8889 -43.0074Z" fill="#0E1C2A"/>
<rect width="109.881" height="109.886" rx="18.2156" transform="matrix(0.878817 0.477159 -0.646257 0.76312 103.75 -33.2229)" fill="#184C66"/>
<path fill-rule="evenodd" clip-rule="evenodd" d="M109.228 40.851L98.4314 53.5682L101.527 55.2538L112.374 42.4775L108.027 57.3533L111.763 57.874L116.08 43.1L118.793 57.6985L122.596 56.9895L119.871 42.3289L129.296 54.5821L132.588 52.742L123.161 40.4867L137.85 48.4621L140.129 45.7716L125.476 37.8157L143.133 40.3122L144.056 37.1833L126.474 34.6975L144.392 31.4152L143.832 28.3196L125.691 31.6426L141.383 22.8653L139.394 20.2809L123.826 28.9888L134.621 16.2731L131.526 14.5875L120.678 27.3651L125.025 12.4877L121.289 11.967L116.973 26.739L114.26 12.1426L110.457 12.8515L113.182 27.5126L103.757 15.2584L100.465 17.0986L109.891 29.354L95.2024 21.3787L92.9239 24.0691L107.578 32.0259L89.9202 29.5292L88.997 32.6581L106.578 35.1438L88.6607 38.426L89.2209 41.5216L107.36 38.1989L91.6689 46.9754L93.6583 49.5598L109.228 40.851Z" fill="#8FD5F5"/>
<rect width="109.069" height="109.069" rx="18.2156" transform="matrix(0.878817 0.477159 -0.646257 0.76312 210.264 25.2637)" fill="#DE9931"/>
<path fill-rule="evenodd" clip-rule="evenodd" d="M242.621 69.6701C227.845 61.6476 207.059 65.5451 196.193 78.3755C185.328 91.2059 188.497 108.111 203.273 116.133C218.049 124.156 238.835 120.258 249.701 107.428C260.566 94.5972 257.396 77.6926 242.621 69.6701ZM202.192 81.6327C210.621 71.6794 226.747 68.6558 238.209 74.8794C249.672 81.1029 252.131 94.217 243.701 104.17C236.009 113.254 221.906 116.566 210.788 112.345L214.154 108.37L220.928 109.554C224.842 110.239 229.044 108.801 231.458 105.951L238.086 98.1241C239.304 96.6856 238.949 94.7903 237.293 93.8909C235.636 92.9914 233.305 93.4284 232.087 94.8669L225.459 102.694C224.892 103.363 223.907 103.7 222.989 103.539L218.857 102.817L236.317 82.1997C237.535 80.7612 237.179 78.8659 235.523 77.9665C233.866 77.067 231.536 77.504 230.318 78.9425L220.853 90.1182L218.557 87.396C218.031 86.7724 218.057 85.9144 218.623 85.2459L221.481 81.8717C222.699 80.4332 222.344 78.5379 220.687 77.6384C219.03 76.739 216.7 77.176 215.482 78.6145L212.624 81.9887C210.211 84.8384 210.098 88.4965 212.341 91.1549L216.151 95.6711L204.799 109.075C195.867 102.356 194.525 90.6868 202.192 81.6327Z" fill="#FED7C1"/>
<rect width="108.661" height="108.661" rx="18.2156" transform="matrix(0.878817 0.477159 -0.646257 0.76312 316.444 82.9143)" fill="black"/>
<rect width="101.067" height="102.83" rx="18.2156" transform="matrix(0.878817 0.477159 -0.646257 0.76312 218.368 165.601)" fill="white"/>
<g clip-path="url(#clip1_112_211)">
<path fill-rule="evenodd" clip-rule="evenodd" d="M229.179 224.492L213.17 215.801L208.044 221.854C200.389 230.893 202.622 242.803 213.032 248.455C223.441 254.107 238.086 251.361 245.741 242.322L250.867 236.268L234.342 227.296L242.507 217.655C245.758 213.817 244.809 208.759 240.389 206.359C235.968 203.959 229.749 205.125 226.499 208.964L231.663 211.767C232.816 210.405 235.023 209.992 236.591 210.843C238.16 211.695 238.496 213.489 237.343 214.852L229.179 224.492ZM225.381 228.976L218.166 237.496L223.33 240.3L230.545 231.78L241.906 237.949L240.577 239.518C235.019 246.081 224.387 248.074 216.829 243.971C209.271 239.867 207.65 231.221 213.208 224.658L214.537 223.089L225.381 228.976Z" fill="#EE1B23"/>
</g>
<rect width="102.243" height="102.83" rx="18.2156" transform="matrix(0.878817 0.477159 -0.646257 0.76312 -49.3536 151.812)" fill="#DE9931"/>
<rect width="105.768" height="107.418" rx="18.2156" transform="matrix(0.878817 0.477159 -0.646257 0.76312 52.3455 204.412)" fill="white"/>
<path d="M80.1963 252.263L59.1782 240.852L27.7329 277.983L69.0444 300.413L85.5665 280.904L81.2179 278.542L67.8937 294.276L35.2793 276.568L60.3289 246.989L76.9985 256.04L80.1963 252.263Z" fill="#18A0FB"/>
<path d="M82.0718 258.794L89.8687 263.028L56.2145 269.338L61.9481 262.567L57.5995 260.206L46.4071 273.423L61.6271 281.686L64.825 277.91L57.0288 273.677L90.6818 267.367L84.9487 274.137L89.2973 276.498L100.49 263.282L85.2696 255.018L82.0718 258.794Z" fill="#18A0FB"/>
<rect width="98.5461" height="103.418" rx="18.2156" transform="matrix(0.878817 0.477159 -0.646257 0.76312 -80.9522 3.08325)" fill="white"/>
<rect width="103.962" height="103.418" rx="18.2156" transform="matrix(0.878817 0.477159 -0.646257 0.76312 15.9799 55.7126)" fill="#0090F1"/>
<g clip-path="url(#clip2_112_211)">
<path d="M28.8133 138.476C27.2592 137.632 26.8292 136.489 25.8862 134.906C24.9432 133.322 22.9205 127.911 26.035 124.234C28.1478 121.739 29.116 119.319 29.2166 117.026C29.3161 114.75 28.5564 112.724 27.453 110.986C26.9212 110.148 26.2969 109.36 25.6311 108.628C25.2428 108.201 25.3503 107.56 25.9357 107.253C29.6474 105.305 34.3926 105.123 38.0465 107.107C43.0203 109.808 44.0876 115.498 40.4298 119.818C39.6473 120.742 38.7118 121.528 37.6761 122.167C39.823 122.106 41.9677 122.555 43.829 123.566C48.8028 126.266 49.87 131.957 46.2123 136.276C41.8089 141.476 34.1942 141.397 28.8133 138.476Z" fill="white"/>
<path d="M3.23486 111.99C-0.25612 116.112 -0.035054 121.246 3.46849 124.256C3.93654 124.807 4.53364 125.293 5.25443 125.684L19.2471 133.282C19.7164 133.536 20.3823 133.102 20.2469 132.645C19.3231 129.52 19.6501 126.001 22.6866 122.416C24.3551 120.445 24.9957 118.698 25.0628 117.16C25.1309 115.604 24.6175 114.135 23.7393 112.751C22.8527 111.354 21.6519 110.119 20.4221 109.038C20.1081 108.813 19.7725 108.602 19.4156 108.408C14.4416 105.707 7.19732 107.311 3.23486 111.99Z" fill="white"/>
</g>
<rect width="102.83" height="102.83" rx="18.2156" transform="matrix(0.878817 0.477159 -0.646257 0.76312 117.671 110.927)" fill="white"/>
<path d="M110.396 180.969L148.93 173.744L147.964 168.59L109.43 175.816L110.396 180.969Z" fill="#0053EA"/>
<path d="M135.504 166.454L120.27 169.31L119.303 164.157L134.538 161.301L135.504 166.454Z" fill="#0053EA"/>
<path d="M123.822 188.259L139.057 185.402L138.09 180.249L122.856 183.106L123.822 188.259Z" fill="#0053EA"/>
<path fill-rule="evenodd" clip-rule="evenodd" d="M91.9904 181.753L123.889 144.087L167.266 167.638L135.367 205.305L91.9904 181.753ZM125.255 151.375L158.304 169.319L134.001 198.017L100.952 180.073L125.255 151.375Z" fill="#0053EA"/>
</g>
</g>
<defs>
<clipPath id="clip0_112_211">
<rect width="270" height="332" fill="white"/>
</clipPath>
<clipPath id="clip1_112_211">
<rect width="42.8949" height="51.1213" fill="white" transform="matrix(0.878817 0.477159 -0.646257 0.76312 227.221 199.209)"/>
</clipPath>
<clipPath id="clip2_112_211">
<rect width="49.5316" height="48.9873" fill="white" transform="matrix(0.878817 0.477159 -0.646257 0.76312 22.3091 89.4673)"/>
</clipPath>
</defs>
</svg>
