<svg version="1.2" xmlns="http://www.w3.org/2000/svg" viewBox="0 0 300 300" width="300" height="300">
	<title>&lt;Group&gt;</title>
	<defs>
		<linearGradient id="g1" x1="47.9" y1="50.2" x2="177.1" y2="4.2" gradientUnits="userSpaceOnUse">
			<stop offset="0" stop-color="#2f6bb9"/>
			<stop offset="1" stop-color="#b171b8"/>
		</linearGradient>
		<linearGradient id="g2" x1="160.3" y1="54.8" x2="72.7" y2="82.3" gradientUnits="userSpaceOnUse">
			<stop offset="0" stop-color="#ffffff" stop-opacity="0"/>
			<stop offset="1" stop-color="#5c339b"/>
		</linearGradient>
		<linearGradient id="g3" x1="1.5" y1="225.2" x2="269.8" y2="145.4" gradientUnits="userSpaceOnUse">
			<stop offset="0" stop-color="#3454ac"/>
			<stop offset="1" stop-color="#d994c8"/>
		</linearGradient>
		<linearGradient id="g4" x1="245.2" y1="221.2" x2="36.5" y2="303.3" gradientUnits="userSpaceOnUse">
			<stop offset="0" stop-color="#da96c9"/>
			<stop offset="1" stop-color="#5c8fcc"/>
		</linearGradient>
		<linearGradient id="g5" x1="388.4" y1="186.6" x2="177.1" y2="276.6" gradientUnits="userSpaceOnUse">
			<stop offset="0" stop-color="#ffffff" stop-opacity="0"/>
			<stop offset="1" stop-color="#5c339b"/>
		</linearGradient>
		<linearGradient id="g6" x1="126.7" y1="284" x2="198.5" y2="246" gradientUnits="userSpaceOnUse">
			<stop offset="0" stop-color="#2f6bb9"/>
			<stop offset="1" stop-color="#b171b8"/>
		</linearGradient>
		<linearGradient id="g7" x1="220" y1="260.5" x2="142" y2="295.2" gradientUnits="userSpaceOnUse">
			<stop offset="0" stop-color="#ffffff" stop-opacity="0"/>
			<stop offset="1" stop-color="#5c339b"/>
		</linearGradient>
		<linearGradient id="g8" x1="-19.5" y1="128.8" x2="254.8" y2="26.1" gradientUnits="userSpaceOnUse">
			<stop offset="0" stop-color="#3454ac"/>
			<stop offset="1" stop-color="#d994c8"/>
		</linearGradient>
		<linearGradient id="g9" x1="234.2" y1="114.1" x2="21.2" y2="181.3" gradientUnits="userSpaceOnUse">
			<stop offset="0" stop-color="#da96c9"/>
			<stop offset="1" stop-color="#5c8fcc"/>
		</linearGradient>
		<linearGradient id="g10" x1="340" y1="119.1" x2="50.1" y2="218.1" gradientUnits="userSpaceOnUse">
			<stop offset="0" stop-color="#ffffff" stop-opacity="0"/>
			<stop offset="1" stop-color="#5c339b"/>
		</linearGradient>
		<linearGradient id="g11" x1="41.2" y1="64" x2="107.2" y2="24.6" gradientUnits="userSpaceOnUse">
			<stop offset="0" stop-color="#f8cee4"/>
			<stop offset="1" stop-color="#f7dfed"/>
		</linearGradient>
		<linearGradient id="g12" x1="34.9" y1="83.7" x2="73.3" y2="40.5" gradientUnits="userSpaceOnUse">
			<stop offset="0" stop-color="#74c4ea"/>
			<stop offset="1" stop-color="#f8cee4"/>
		</linearGradient>
		<linearGradient id="g13" x1="25.9" y1="97.9" x2="130.8" y2="28.3" gradientUnits="userSpaceOnUse">
			<stop offset="0" stop-color="#6ed6f6"/>
			<stop offset="1" stop-color="#fcdceb"/>
		</linearGradient>
		<linearGradient id="g14" x1="34.6" y1="213.6" x2="242.9" y2="84.5" gradientUnits="userSpaceOnUse">
			<stop offset="0" stop-color="#6ed6f6"/>
			<stop offset="1" stop-color="#fcdceb"/>
		</linearGradient>
		<linearGradient id="g15" x1="187.8" y1="251" x2="262.4" y2="191.9" gradientUnits="userSpaceOnUse">
			<stop offset="0" stop-color="#74c4ea"/>
			<stop offset="1" stop-color="#f8cee4"/>
		</linearGradient>
		<linearGradient id="g16" x1="7.6" y1="160.2" x2="166.6" y2="27.5" gradientUnits="userSpaceOnUse">
			<stop offset="0" stop-color="#50d2f4"/>
			<stop offset="1" stop-color="#f8cee4"/>
		</linearGradient>
		<linearGradient id="g17" x1="283.5" y1="53.3" x2="73.6" y2="200.1" gradientUnits="userSpaceOnUse">
			<stop offset="0" stop-color="#ffffff" stop-opacity="0"/>
			<stop offset="1" stop-color="#5c339b"/>
		</linearGradient>
		<linearGradient id="g18" x1="93.6" y1="171.6" x2="159.3" y2="132.4" gradientUnits="userSpaceOnUse">
			<stop offset="0" stop-color="#50d2f4"/>
			<stop offset="1" stop-color="#f8cee4"/>
		</linearGradient>
		<linearGradient id="g19" x1="164.5" y1="140.7" x2="129.8" y2="162.7" gradientUnits="userSpaceOnUse">
			<stop offset="0" stop-color="#ffffff" stop-opacity="0"/>
			<stop offset="1" stop-color="#5c339b"/>
		</linearGradient>
		<linearGradient id="g20" x1="83" y1="241.7" x2="208.7" y2="106.7" gradientUnits="userSpaceOnUse">
			<stop offset="0" stop-color="#6ed6f6"/>
			<stop offset="1" stop-color="#f8cee4"/>
		</linearGradient>
		<linearGradient id="g21" x1="374.6" y1="154.3" x2="131" y2="307.1" gradientUnits="userSpaceOnUse">
			<stop offset="0" stop-color="#ffffff" stop-opacity="0"/>
			<stop offset="1" stop-color="#5c339b"/>
		</linearGradient>
		<linearGradient id="g22" x1="43.3" y1="66.7" x2="108.9" y2="27.5" gradientUnits="userSpaceOnUse">
			<stop offset="0" stop-color="#ffffff" stop-opacity="0"/>
			<stop offset="1" stop-color="#ffffff" stop-opacity=".5"/>
		</linearGradient>
		<linearGradient id="g23" x1="19.4" y1="150" x2="177.7" y2="17.9" gradientUnits="userSpaceOnUse">
			<stop offset="0" stop-color="#ffffff" stop-opacity="0"/>
			<stop offset="1" stop-color="#ffffff" stop-opacity=".5"/>
		</linearGradient>
		<linearGradient id="g24" x1="76.8" y1="104" x2="268.6" y2="104" gradientUnits="userSpaceOnUse">
			<stop offset="0" stop-color="#ffffff" stop-opacity="0"/>
			<stop offset="1" stop-color="#ffffff" stop-opacity=".5"/>
		</linearGradient>
	</defs>
	<style>
		.s0 { fill: url(#g1) } 
		.s1 { opacity: .5;mix-blend-mode: overlay;fill: url(#g2) } 
		.s2 { fill: url(#g3) } 
		.s3 { fill: url(#g4) } 
		.s4 { opacity: .5;mix-blend-mode: overlay;fill: url(#g5) } 
		.s5 { fill: url(#g6) } 
		.s6 { opacity: .5;mix-blend-mode: overlay;fill: url(#g7) } 
		.s7 { fill: url(#g8) } 
		.s8 { fill: url(#g9) } 
		.s9 { opacity: .5;mix-blend-mode: overlay;fill: url(#g10) } 
		.s10 { fill: url(#g11) } 
		.s11 { fill: url(#g12) } 
		.s12 { fill: url(#g13) } 
		.s13 { fill: url(#g14) } 
		.s14 { fill: url(#g15) } 
		.s15 { fill: url(#g16) } 
		.s16 { opacity: .7;mix-blend-mode: overlay;fill: url(#g17) } 
		.s17 { fill: url(#g18) } 
		.s18 { opacity: .7;mix-blend-mode: overlay;fill: url(#g19) } 
		.s19 { fill: url(#g20) } 
		.s20 { opacity: .7;mix-blend-mode: overlay;fill: url(#g21) } 
		.s21 { fill: url(#g22) } 
		.s22 { fill: url(#g23) } 
		.s23 { fill: url(#g24) } 
	</style>
	<g id="&lt;Group&gt;">
		<g id="&lt;Group&gt;">
			<g id="&lt;Group&gt;">
				<path id="&lt;Path&gt;" class="s0" d="m192.5 33.5c-52.8-7.4-125.6 21.7-141.3 38.5c2.5-3.1 6-7.1 8.8-10.1c8.6-8.5 14.9-13.5 25.1-19.9c2-1.2 2-1.2 5.7-3.2c1.7-0.9 1.8-1 5.2-2.6l2.4-1.1c8.2-3.7 21.9-8.6 40.2-10.6c2.2-0.2 5.1-0.4 7.2-0.5c7.7-0.1 8.8-0.1 18 0.7q1 0.1 2 0.2q0.4 0.1 0.7 0.1q0.4 0.1 0.7 0.1c0 0 0.2 0 0 0c10.2 1.4 15.4 3 24.8 6c4.8 1.8 11.1 4.5 15.7 6.7c-5.3-2.4-7.8-3.3-15.2-4.3z" />
				<path id="&lt;Path&gt;" class="s1" d="m192.5 33.5c-52.8-7.4-125.6 21.7-141.3 38.5c2.5-3.1 6-7.1 8.8-10.1c8.6-8.5 14.9-13.5 25.1-19.9c2-1.2 2-1.2 5.7-3.2c1.7-0.9 1.8-1 5.2-2.6l2.4-1.1c8.2-3.7 21.9-8.6 40.2-10.6c2.2-0.2 5.1-0.4 7.2-0.5c7.7-0.1 8.8-0.1 18 0.7q1 0.1 2 0.2q0.4 0.1 0.7 0.1q0.4 0.1 0.7 0.1c0 0 0.2 0 0 0c10.2 1.4 15.4 3 24.8 6c4.8 1.8 11.1 4.5 15.7 6.7c-5.3-2.4-7.8-3.3-15.2-4.3z" />
			</g>
			<g id="&lt;Group&gt;">
				<path id="&lt;Path&gt;" class="s2" d="m262.8 206.9c-2.4 4.5-5.9 10.3-8.6 14.6c-5.7 8.2-9.7 12.4-14.8 17.8c-9 8.8-15.9 13.7-24.1 18.9c-1.9 1.1-2 1.2-5.7 3.2c-1.7 0.9-1.8 0.9-5.2 2.6c-1.7 0.8-1.7 0.8-5 2.3c-1.7 0.7-1.7 0.7-5.1 2c-1.8 0.7-1.8 0.7-5.4 1.9c-2 0.6-2 0.6-6 1.7c-2.4 0.7-2.4 0.7-7.2 1.7c-3.1 0.7-3.1 0.7-8.9 1.6c-2.2 0.2-5.1 0.5-7.3 0.7q-3 0.2-3.9-0.5c-4.9-3.8 25.4-17.7 39-17.9c2.2-0.1 6.9 0.2 3.5 3.9c-2.2 1.8-2.2 2.1-2.2 3.1c0.2 0.1 0.5 0.3 0.8 0.4c6.1 1.5 50.4-22.3 37.7-37.9c-11.3-9.6-39.4-4.7-54.9-1.3c-40.1 9.1-88.9 33.9-79 40.3l-4.8-2.2c-6.9-3.3-7.5-3.7-17.8-10.4c-6.1-4.2-6.5-4.6-15.9-13.1l-5.4-5.6c-0.1-0.3-0.4-0.6-0.5-0.9c-2.6-11.1 137.9-81.7 199.4-55.2c16.4 8.2 9.8 22.8 7.3 28.3z" />
				<path id="&lt;Path&gt;" class="s3" d="m262.8 206.9c-1.1 2.1-2.5 4.4-3.9 6.8c-1.4-2.6-3.9-5.1-7.9-7.1c-49.6-21.3-156.2 27.6-175.8 45c-3.8-2.8-5.3-4.2-13.2-11.3l-5.4-5.6c-10-11.8 35.3-38.3 50.6-45.9c15.3-7.5 17.8-1.9 6.3 6c-11.6 7.9 3.9 2.8 9.2 0.7c44.2-17.4 99.8-31.1 132.8-16.9c16.4 8.2 9.8 22.8 7.3 28.3z" />
				<path id="&lt;Path&gt;" class="s4" d="m261.1 209.9q-0.1 0.2-0.1 0.3c-2.2 3.8-4.7 8-6.8 11.3c-5.7 8.2-9.7 12.4-14.8 17.8c-9 8.8-15.9 13.7-24.1 18.9c-1.9 1.1-2 1.2-5.7 3.2c-1.7 0.9-1.8 0.9-5.2 2.6c-1.7 0.8-1.7 0.8-5 2.3c-1.7 0.7-1.7 0.7-5.1 2c-1.8 0.7-1.8 0.7-5.4 1.9c-2 0.6-2 0.6-6 1.7c-2.4 0.7-2.4 0.7-7.2 1.7c-3.1 0.7-3.1 0.7-8.9 1.6c-2.2 0.2-5.1 0.5-7.3 0.7q-3 0.2-3.9-0.5c-4.9-3.8 25.4-17.7 39-17.9c2.2-0.1 6.9 0.2 3.5 3.9c-2.2 1.8-2.2 2.1-2.2 3.1c0.2 0.1 0.5 0.3 0.8 0.4c6.1 1.5 50.4-22.3 37.7-37.9c-11.3-9.6-39.4-4.7-54.9-1.3c-40.1 9.1-88.9 33.9-79 40.3l-4.8-2.2c-6.9-3.3-7.5-3.7-17.8-10.4c-1.1-0.7-1.9-1.3-2.7-1.8q0 0 0 0q0-0.1-0.1-0.1q-0.2-0.1-0.4-0.3q-0.2-0.1-0.3-0.3q-0.2-0.1-0.4-0.2q-0.2-0.2-0.4-0.3q-0.1-0.1-0.3-0.2q-0.2-0.2-0.4-0.4q-0.2-0.1-0.4-0.3q-0.2-0.2-0.5-0.4q-0.1-0.1-0.3-0.2q-0.2-0.2-0.4-0.3q-0.1-0.1-0.3-0.3q-0.2-0.2-0.4-0.3q-0.2-0.2-0.3-0.3q-0.3-0.2-0.5-0.4q-0.2-0.1-0.3-0.3q-0.3-0.2-0.6-0.5q-0.2-0.2-0.5-0.4q-0.3-0.3-0.7-0.7q-0.2-0.1-0.4-0.3q-0.3-0.3-0.7-0.6q-0.2-0.2-0.5-0.5q-0.3-0.3-0.7-0.6q-0.2-0.2-0.5-0.5q-0.5-0.4-0.9-0.8q-0.3-0.2-0.5-0.4q-0.7-0.7-1.5-1.4l-5.4-5.6c-10-11.8 35.3-38.3 50.6-45.9c15.3-7.5 17.8-1.9 6.3 6c-11.6 7.9 3.9 2.8 9.2 0.7q0.2 0 0.4-0.1q1.5-0.6 2.9-1.1q0.6-0.3 1.2-0.5q1.5-0.6 3.1-1.2q0.5-0.2 1-0.4q1.8-0.6 3.7-1.3q0.2-0.1 0.5-0.2q4.2-1.5 8.6-3q0.2 0 0.3-0.1q2-0.6 4-1.3q0.5-0.2 1.1-0.3q1.6-0.5 3.2-1q0.7-0.2 1.4-0.5q1.4-0.4 2.9-0.8q0.8-0.3 1.6-0.5q1.4-0.4 2.7-0.8q0.9-0.2 1.7-0.5q1.4-0.3 2.7-0.7q0.9-0.2 1.7-0.5q1.4-0.3 2.7-0.6q0.9-0.3 1.7-0.5q1.3-0.3 2.6-0.6q0.9-0.2 1.8-0.4q1.3-0.3 2.6-0.6q0.9-0.2 1.8-0.4q1.3-0.3 2.6-0.5q0.9-0.2 1.7-0.4q1.4-0.3 2.7-0.5q0.8-0.2 1.7-0.3q1.3-0.3 2.7-0.5q0.8-0.1 1.6-0.3q1.5-0.2 3-0.4q0.6-0.1 1.2-0.2q4.3-0.6 8.5-1q0.6-0.1 1.2-0.1q1.4-0.2 2.9-0.3q0.8 0 1.5-0.1q1.3-0.1 2.6-0.1q0.8-0.1 1.6-0.1q1.2-0.1 2.4-0.1q0.8 0 1.7 0q1.1 0 2.2 0q0.9 0 1.7 0q1.1 0 2.2 0.1q0.9 0 1.7 0q1.1 0.1 2.1 0.2q0.9 0 1.7 0.1q1 0.1 2.1 0.2q0.8 0.1 1.6 0.2q1 0.1 2 0.2q0.8 0.1 1.6 0.3q1 0.1 2 0.3q0.7 0.2 1.5 0.3q1 0.2 2 0.4q0.7 0.2 1.4 0.4q1 0.2 2 0.5q0.6 0.2 1.3 0.4q1.1 0.3 2.1 0.7q0.5 0.2 1.1 0.4q1.5 0.5 3 1.2c16.4 8.2 9.8 22.8 7.3 28.3q-0.4 0.8-0.9 1.7q-0.4 0.6-0.8 1.3z" />
			</g>
			<g id="&lt;Group&gt;">
				<path id="&lt;Path&gt;" class="s5" d="m166.8 275.2c-2.2 0.2-5.1 0.5-7.3 0.7q-3 0.2-3.9-0.5c-4.9-3.8 25.4-17.7 39-17.9c2.2-0.1 6.9 0.2 3.5 3.9c-2.2 1.8-2.2 2.1-2.2 3.1c0.2 0.1 0.5 0.3 0.8 0.4c3.7 0.9 20.9-7.2 31.5-17.2q0.6 0.2 1.2 0.6c-4.7 3.8-9.2 6.8-14.1 9.9c-1.9 1.1-2 1.2-5.7 3.2c-1.7 0.9-1.8 0.9-5.2 2.6c-1.7 0.8-1.7 0.8-5 2.3c-1.7 0.7-1.7 0.7-5.1 2c-1.8 0.7-1.8 0.7-5.4 1.9c-2 0.6-2 0.6-6 1.7c-2.4 0.7-2.4 0.7-7.2 1.7c-3.1 0.7-3.1 0.7-8.9 1.6z" />
				<path id="&lt;Path&gt;" class="s6" d="m166.8 275.2c-2.2 0.2-5.1 0.5-7.3 0.7q-3 0.2-3.9-0.5c-4.9-3.8 25.4-17.7 39-17.9c2.2-0.1 6.9 0.2 3.5 3.9c-2.2 1.8-2.2 2.1-2.2 3.1c0.2 0.1 0.5 0.3 0.8 0.4c3.7 0.9 20.9-7.2 31.5-17.2q0.6 0.2 1.2 0.6c-4.7 3.8-9.2 6.8-14.1 9.9c-1.9 1.1-2 1.2-5.7 3.2c-1.7 0.9-1.8 0.9-5.2 2.6c-1.7 0.8-1.7 0.8-5 2.3c-1.7 0.7-1.7 0.7-5.1 2c-1.8 0.7-1.8 0.7-5.4 1.9c-2 0.6-2 0.6-6 1.7c-2.4 0.7-2.4 0.7-7.2 1.7c-3.1 0.7-3.1 0.7-8.9 1.6z" />
			</g>
			<g id="&lt;Group&gt;">
				<path id="&lt;Path&gt;" class="s7" d="m275.8 138.8c-1.9-12.3-13.7-16.8-19-19.2c-65.2-29.3-228.5 41.1-229.1 60.5l-0.1-0.4c-1.8-7.2-1.8-7.7-3.2-20.6c-0.5-7.4-0.5-7.9 0.2-20.6c0.4-3.9 1.2-8.9 1.8-12.8c3.7-15.2 132-75 209.7-56.3c13.7 4.1 17.6 9.1 20.7 13.2c3 5.1 6.7 12.2 9.3 17.6c3.3 8 3.6 9 7.1 21.5c0.9 5.1 1.9 11.6 2.6 17.1z" />
				<path id="&lt;Path&gt;" class="s8" d="m266.6 101.5c-3.4-2.6-8.2-5.3-15.9-7.6c-77.8-19.4-201.6 35-226.7 58.2c0-2.9 0.2-6.2 0.6-13.6c0.4-3.9 1.2-8.9 1.8-12.8c0.4-16.7 74.7-53.9 98-58.5c14-2.8 7.7 2.8 0.3 4.8c-14.6 4-35 16.7-16.7 11.3l-0.1 0.1c41.4-13.8 90.7-23 128.2-14c13.7 4.1 17.6 9.1 20.7 13.2c3 5.1 6.7 12.2 9.3 17.6q0.3 0.7 0.5 1.3z" />
				<path id="&lt;Path&gt;" class="s9" d="m275.8 138.8c-1.9-12.3-13.7-16.8-19-19.2c-65.2-29.3-228.5 41.1-229.1 60.5l-0.1-0.4c-1.8-7.2-1.8-7.7-3.2-20.6c-0.3-3.4-0.4-5.3-0.4-7.6q0 0 0 0q0-0.2 0-0.5q0 0 0-0.1q0-1.1 0.1-2.4q0 0 0 0q0-0.4 0-0.7q0-0.1 0-0.1q0-0.3 0-0.7q0 0 0-0.1q0.1-0.3 0.1-0.7q0 0 0 0q0-1.3 0.1-2.9q0 0 0 0q0.1-1.5 0.2-3.4q0-0.1 0-0.2q0.1-0.6 0.1-1.2c0.4-3.9 1.2-8.9 1.8-12.8c0.4-16.7 74.7-53.9 98-58.5c14-2.8 7.7 2.8 0.3 4.8c-14.6 4-35 16.7-16.7 11.3l-0.1 0.1c7.7-2.6 15.7-5 23.8-7.1q0.1-0.1 0.3-0.1q1.6-0.4 3.2-0.9q0.5-0.1 0.9-0.2q1.5-0.4 3-0.7q0.6-0.2 1.3-0.3q1.3-0.3 2.7-0.7q0.7-0.1 1.5-0.3q1.3-0.3 2.6-0.6q0.8-0.2 1.6-0.3q1.3-0.3 2.6-0.6q0.8-0.2 1.7-0.3q1.2-0.3 2.4-0.5q0.9-0.2 1.8-0.4q1.2-0.2 2.4-0.4q1-0.2 1.9-0.3q1.2-0.2 2.3-0.4q1-0.2 2-0.3q1.1-0.2 2.3-0.4q0.9-0.1 1.9-0.3q1.1-0.1 2.3-0.3q1-0.1 2-0.2q1.1-0.2 2.2-0.3q1-0.1 2-0.3q1.1-0.1 2.2-0.2q1-0.1 2-0.2q1.1-0.1 2.2-0.2q1-0.1 2-0.1q1.1-0.1 2.1-0.2q1.1-0.1 2.1-0.1q1-0.1 2.1-0.1q1-0.1 2.1-0.1q1 0 2-0.1q1 0 2.1 0q1 0 2-0.1q1 0 2.1 0.1q1 0 1.9 0q1.1 0 2.1 0q1 0 1.9 0.1q1.1 0 2.1 0.1q1 0 1.9 0.1q1.1 0 2.1 0.1q0.9 0.1 1.8 0.2q1.1 0.1 2.1 0.2q0.9 0.1 1.8 0.2q1.1 0.1 2.1 0.2q0.9 0.1 1.7 0.2q1.1 0.2 2.2 0.4q0.8 0.1 1.5 0.2q1.3 0.3 2.5 0.5q0.6 0.1 1.2 0.2q1.9 0.4 3.6 0.8c13.7 4.1 17.6 9.1 20.7 13.2c3 5.1 6.7 12.2 9.3 17.6c3.3 8 3.6 9 7.1 21.5c0.9 5.1 1.9 11.6 2.6 17.1z" />
			</g>
		</g>
		<g id="&lt;Group&gt;">
			<path id="&lt;Path&gt;" class="s10" d="m51.2 72c2.5-3.1 6-7.1 8.8-10.1c7.7-7.6 13.8-12.8 25.1-19.9c3.8-2.2 3.8-2.2 5.7-3.2c3.5-1.8 3.5-1.8 5.2-2.6l2.4-1.1c-13.6 6.3-11.5 8.1-11.2 8.2c1.5 1 8.8-1 15.1-4.5c9.5-4.4 16.5-3.2 14.2 2.4c-6.7 16.2-62.4 40.9-66.3 33.7c-0.5-0.9 0.4-2.2 1-2.9z" />
			<path id="&lt;Path&gt;" class="s11" d="m116.9 38.8q0.2 1-0.4 2.4c-6.7 16.2-62.4 40.9-66.3 33.7c-0.5-0.9 0.4-2.2 1-2.9c2.5-3.1 6-7.1 8.8-10.1c2.5-2.5 4.9-4.7 7.3-6.8c-0.3 0.6-0.5 1.2-0.2 1.7c2.7 5.1 30.9-5.6 49.8-18z" />
			<path id="&lt;Path&gt;" class="s12" d="m207.7 37.8c54.8 27.9-80.2 122.4-155.8 142c-9.6 2.6-22.5 5-24.2 0.3c-1.9-4.9-6.7-29.5-1.3-54.4c0.3 15.2 92.6-20.8 132.1-63.6c14.8-16.1 21.4-35.6-8.6-37.9c23.5-0.8 42.3 5.7 57.8 13.6z" />
			<path id="&lt;Path&gt;" class="s13" d="m276 140.7c3.2 58.5-131.7 136.3-175.5 125.3c-8.3-2.1-33.2-17.6-43.9-31.3c28.8 19.4 216-92.1 203-145.5c-0.5-2.1-1.8-4.7-2.8-6.6c7.4 10.7 17.9 33.1 19.2 58.1z" />
			<path id="&lt;Path&gt;" class="s14" d="m254.2 221.5c-4.3 5.8-7.9 10.8-14.8 17.8c-6.3 6.1-12.5 11.7-24.1 18.9c-3.8 2.2-3.8 2.2-5.7 3.2c-3.5 1.8-3.5 1.8-5.2 2.6c-3.3 1.6-3.3 1.6-5 2.3c-3.4 1.3-3.4 1.3-5.1 2c-3.5 1.3-3.6 1.3-5.4 1.9c-3.9 1.2-4 1.2-6 1.7c-4.5 1.2-4.7 1.2-7.2 1.7c-5.4 1.1-5.7 1.1-8.9 1.6c-2.2 0.2-5.1 0.5-7.3 0.7c21.1-2.6 84.5-34.1 103.3-69c-2.4 4.5-5.7 10.4-8.6 14.6z" />
			<g id="&lt;Group&gt;">
				<path id="&lt;Path&gt;" class="s15" d="m183.9 125c-24.4 19.5-37.9 19.1-24.4 8.3c21.4-17.2 5.9-10.8-5.9-2.9c-33 22.4-71.9 41.7-101.7 49.4c-9.6 2.6-22.5 5-24.2 0.3c-1.1-2.9-3.3-12.7-3.7-25.4c4.8 1 11.6 1.3 20.5-0.4c79.5-15.8 187.4-100.3 140.6-124.1q-4.5-2.3-9.6-3.9c12.2 2.4 22.8 6.7 32.2 11.5c4.6 2.3 7.8 5.1 9.8 8.2q0.1 0 0.1 0.1q1.8 2.8 2.5 6c3.3 11.8 5.1 39.8-36.2 72.9z" />
				<path id="&lt;Path&gt;" class="s16" d="m183.9 125c-24.4 19.5-37.9 19.1-24.4 8.3c21.4-17.2 5.9-10.8-5.9-2.9c-33 22.4-71.9 41.7-101.7 49.4c-9.6 2.6-22.5 5-24.2 0.3c-1.1-2.9-3.3-12.7-3.7-25.4c4.8 1 11.6 1.3 20.5-0.4c79.5-15.8 187.4-100.3 140.6-124.1q-4.5-2.3-9.6-3.9c12.2 2.4 22.8 6.7 32.2 11.5c4.6 2.3 7.8 5.1 9.8 8.2q0.1 0 0.1 0.1q1.8 2.8 2.5 6c3.3 11.8 5.1 39.8-36.2 72.9z" />
			</g>
			<g id="&lt;Group&gt;">
				<path id="&lt;Path&gt;" class="s17" d="m144.4 144.1c4.4-1.4 7.5-0.1 4 3.9c-2.6 3-8.7 7.2-14.9 8.6c-4.9 1.2-6.2-0.8-2.6-4.5c3.5-3.5 10.8-7.2 13.5-8z" />
				<path id="&lt;Path&gt;" class="s18" d="m144.4 144.1c4.4-1.4 7.5-0.1 4 3.9c-2.6 3-8.7 7.2-14.9 8.6c-4.9 1.2-6.2-0.8-2.6-4.5c3.5-3.5 10.8-7.2 13.5-8z" />
			</g>
			<g id="&lt;Group&gt;">
				<path id="&lt;Path&gt;" class="s19" d="m276.1 158.4c-3.2 22.6-9.9 21.3-8.7 16c0.8-3.6 3.9-8.7 2.5-8.3c-13.2 26.3-49.9 86.7-146.7 106.8c-27 5.6-26.1-4.2-22.2-3.9c7.5 0.6 12.8 0.5 17.8-0.4c4.4-0.7 2.3-2.3-1.3-2c-6.6 0.8-12.3 0.6-17-0.6c-4.7-1.2-14.1-6.1-23.3-12.9c53.4 6 195.6-77.8 192.2-141.2c0-1.3 0-2.7-0.1-4c4.1 11.3 9.3 33 6.8 50.5z" />
				<path id="&lt;Path&gt;" class="s20" d="m276.1 158.4c-3.2 22.6-9.9 21.3-8.7 16c0.8-3.6 3.9-8.7 2.5-8.3c-13.2 26.3-49.9 86.7-146.7 106.8c-27 5.6-26.1-4.2-22.2-3.9c7.5 0.6 12.8 0.5 17.8-0.4c4.4-0.7 2.3-2.3-1.3-2c-6.6 0.8-12.3 0.6-17-0.6c-4.7-1.2-14.1-6.1-23.3-12.9c53.4 6 195.6-77.8 192.2-141.2c0-1.3 0-2.7-0.1-4c4.1 11.3 9.3 33 6.8 50.5z" />
			</g>
			<g id="&lt;Group&gt;">
				<path id="&lt;Path&gt;" class="s21" d="m116.9 38.5q0.1 0.3 0.1 0.8c-15.8 10.2-37.7 19.2-46.4 19.2q-1.1 0-2-0.2q-1.3-0.4-1.8-1.3q-0.3-0.6-0.1-1.4q0.4-0.4 0.9-0.8l0.2 0.1l-0.2 0.3q-0.5 1-0.2 1.5q0.3 0.6 1.4 0.9c6.8 1.7 31-7.9 47.9-19.1z" />
				<path id="&lt;Path&gt;" class="s22" d="m172 25.6q3.2 0.6 6.3 1.3q3.8 1.3 7 3c8.7 4.4 12.5 11.1 11.3 19.8c-2.2 16.3-22.3 38.9-53.7 60.6c-31.5 21.8-68.2 38.3-98.3 44.3q-6.4 1.3-12 1.3q-4.6 0-8.6-0.9q0-0.3 0-0.7h0.1c5.9 1.3 12.7 1.1 20.3-0.4c30-6 66.7-22.5 98.1-44.2c31.2-21.6 51.2-44 53.4-60.1c1.2-8.4-2.5-14.8-10.9-19.1c-2.9-1.5-6.1-2.8-9.6-3.9z" />
				<path id="&lt;Path&gt;" class="s23" d="m269.8 111.9c-0.1-1-0.1-2-0.2-3.1q-0.5-1.4-1-2.8l0.2 2.2c0.1 1.4 0.2 2.6 0.3 3.7c0.7 13.7-5.2 36.5-37.7 67.1c-21.5 20.3-50.9 40.1-80.9 54.3c-29.8 14.3-56.5 21.3-73.3 19.4h-0.4v0.2q0.5 0.3 0.9 0.6q2.6 0.3 5.3 0.3c37.5 0 106-33.8 148.9-74.3c18-17 39.2-42.5 37.9-67.6z" />
			</g>
		</g>
	</g>
</svg>