<svg width="40" height="40" viewBox="0 0 40 40" fill="none" xmlns="http://www.w3.org/2000/svg">
<path fill-rule="evenodd" clip-rule="evenodd" d="M7.0842 10.658C10.061 6.65394 14.8278 4.05986 20.2005 4.05986C25.6047 4.05986 30.3958 6.68455 33.3689 10.7287C33.2425 10.8589 33.1271 10.9937 33.0229 11.1284C32.4782 11.8337 32.0685 12.7421 31.7402 13.6646C31.0791 15.5199 30.5748 17.9434 30.108 20.2128L30.0665 20.4168C29.6006 22.682 29.1677 24.7887 28.6442 26.3526C28.409 27.0552 28.1859 27.5519 27.9881 27.8701C27.7818 27.5494 27.5476 27.0466 27.2997 26.3339C26.7398 24.7252 26.2689 22.5369 25.7697 20.2005L25.7535 20.1239V20.1239C25.2738 17.8796 24.7649 15.4984 24.1304 13.6757C23.8116 12.76 23.4205 11.8607 22.909 11.162C22.4069 10.4763 21.5712 9.70239 20.349 9.70239C19.1344 9.70239 18.2948 10.4679 17.7856 11.1459C17.2641 11.8401 16.8576 12.7357 16.5227 13.6518C15.8483 15.4965 15.2969 17.9096 14.7838 20.182L14.7308 20.4168C14.2227 22.668 13.7476 24.7726 13.2085 26.3395C13.0026 26.9379 12.8084 27.3931 12.6325 27.7183C12.4607 27.3946 12.2713 26.9424 12.0711 26.3491C11.5538 24.8156 11.1007 22.7699 10.614 20.5727L10.5288 20.1882C10.0245 17.9143 9.47742 15.4969 8.79342 13.6464C8.45357 12.7269 8.0379 11.8268 7.49997 11.1293C7.37817 10.9715 7.23973 10.8112 7.0842 10.658ZM5.28256 13.7324C5.42434 14.0124 5.57431 14.3594 5.72939 14.7789C6.32144 16.3807 6.82305 18.5663 7.33958 20.8954L7.44008 21.3492C7.91038 23.4745 8.3996 25.6852 8.97582 27.3931C9.28228 28.3015 9.65238 29.1912 10.1284 29.8827C10.5785 30.5367 11.386 31.3814 12.6277 31.3814C13.8659 31.3814 14.6753 30.5407 15.1285 29.8897C15.6086 29.1998 15.9847 28.3111 16.2974 27.4022C16.8968 25.6604 17.4071 23.3979 17.8955 21.2327V21.2325L17.9702 20.9016C18.4965 18.571 19.003 16.381 19.5908 14.7735C19.8631 14.0287 20.118 13.5098 20.3399 13.1879C20.5502 13.507 20.7905 14.0176 21.0453 14.7496C21.6054 16.3585 22.0759 18.5467 22.5752 20.8831L22.5915 20.9597C23.0711 23.2039 23.58 25.5852 24.2145 27.4077C24.5333 28.3238 24.9244 29.2231 25.4359 29.9216C25.9381 30.6075 26.7737 31.3814 27.9957 31.3814C29.2243 31.3814 30.0569 30.6004 30.5531 29.9085C31.0569 29.2064 31.4357 28.304 31.7417 27.3895C32.33 25.633 32.7978 23.3539 33.2435 21.1857V21.1856L33.3077 20.8708C33.7877 18.5372 34.2485 16.3576 34.8175 14.7607C34.9409 14.4133 35.0623 14.1171 35.1782 13.8683C36.0502 15.8668 36.5337 18.0735 36.5337 20.3932C36.5337 29.4138 29.2213 36.7267 20.2005 36.7267C11.1798 36.7267 3.86712 29.4138 3.86712 20.3932C3.86712 18.0208 4.37292 15.7666 5.28256 13.7324ZM20.2005 0.793213C9.37571 0.793213 0.600464 9.56845 0.600464 20.3932C0.600464 31.218 9.37571 39.9932 20.2005 39.9932C31.0255 39.9932 39.8002 31.218 39.8002 20.3932C39.8002 9.56845 31.0255 0.793213 20.2005 0.793213ZM20.5715 12.9165C20.5731 12.9154 20.5739 12.9147 20.5739 12.9145C20.5739 12.9141 20.57 12.9163 20.5624 12.9224C20.5666 12.9199 20.5696 12.918 20.5715 12.9165ZM20.1224 12.9167C20.1148 12.912 20.111 12.9089 20.111 12.9084C20.111 12.908 20.1148 12.9104 20.1224 12.9167ZM27.7474 28.1801C27.7474 28.1801 27.7509 28.1766 27.758 28.172C27.7509 28.1781 27.7474 28.1806 27.7474 28.1801ZM28.2223 28.167C28.2299 28.1715 28.234 28.1746 28.234 28.1751C28.234 28.1756 28.2299 28.173 28.2223 28.167ZM12.293 28.2095C12.2929 28.2089 12.2977 28.2044 12.3071 28.1978C12.2978 28.2064 12.293 28.21 12.293 28.2095ZM12.9545 28.2009C12.9639 28.2074 12.9686 28.212 12.9686 28.2125C12.9685 28.213 12.9638 28.21 12.9545 28.2009Z" fill="#5F6177"/>
</svg>
