<svg width="33" height="35" viewBox="0 0 33 35" fill="none" xmlns="http://www.w3.org/2000/svg">
<path fill-rule="evenodd" clip-rule="evenodd" d="M26.0327 6.3907H11.8308V0.365723H32.0575V20.5924H26.0327V6.3907Z" fill="#5F6177"/>
<path fill-rule="evenodd" clip-rule="evenodd" d="M14.9392 18.3794C14.0192 17.7647 12.9375 17.4366 11.831 17.4366V11.4116C14.1292 11.4116 16.3757 12.0931 18.2865 13.3699C20.1974 14.6467 21.6866 16.4614 22.5661 18.5846C23.4456 20.7079 23.6758 23.0441 23.2275 25.298C22.7791 27.5522 21.6725 29.6224 20.0473 31.2477C18.4223 32.8726 16.3519 33.9792 14.0979 34.4276C11.8439 34.8759 9.50759 34.6457 7.38436 33.7662C5.26117 32.8867 3.44646 31.3976 2.16968 29.4866C0.892896 27.576 0.211426 25.3294 0.211426 23.031H6.2364C6.2364 24.1376 6.56452 25.2194 7.17927 26.1392C7.79399 27.0594 8.66776 27.7766 9.69003 28.2001C10.7123 28.6233 11.8372 28.7343 12.9225 28.5182C14.0077 28.3025 15.0046 27.7697 15.787 26.9874C16.5694 26.2047 17.1023 25.2081 17.3182 24.1228C17.534 23.0376 17.4232 21.9124 16.9998 20.8902C16.5763 19.868 15.8593 18.9942 14.9392 18.3794Z" fill="#5F6177"/>
</svg>
