<svg width="47" height="47" viewBox="0 0 47 47" fill="none" xmlns="http://www.w3.org/2000/svg">
<path fill-rule="evenodd" clip-rule="evenodd" d="M36.9059 0.934326C41.7837 0.934326 45.8536 4.35631 46.7947 8.90542C46.9292 9.55531 46.9998 10.2282 46.9998 10.9174V36.4739C46.9998 41.9873 42.4806 46.4569 36.9059 46.4569H11.0654C9.96173 46.4569 8.89948 46.2816 7.90543 45.9582C3.87842 44.6464 0.971436 40.896 0.971436 36.4739V10.9174C0.971436 5.40389 5.49067 0.934326 11.0654 0.934326H36.9059ZM32.8118 4.1289H36.9059C40.251 4.1289 43.0374 6.49567 43.6462 9.62843C41.7037 9.8461 39.4831 9.6444 37.138 8.65053C35.0603 7.76971 33.6819 6.13788 32.8118 4.1289ZM23.2277 4.1289H29.3629C30.3823 7.16354 32.3349 10.0902 35.8658 11.5868C38.6982 12.7873 41.388 13.0658 43.7698 12.8319V16.096C40.5361 17.1085 37.3137 17.5182 34.7353 16.7718C33.4545 16.4011 31.9849 15.4168 30.4033 13.8684C28.8436 12.3412 27.2871 10.377 25.8175 8.22992C24.9042 6.89567 24.0345 5.50579 23.2277 4.1289ZM19.5182 4.1289H15.244C15.4388 7.74383 14.5776 12.1593 11.3739 16.6324C9.25144 19.596 6.74147 21.2258 4.20151 21.9538V28.3226C5.73199 27.4033 7.53377 26.1479 9.64328 24.4527C14.6276 20.4474 18.5535 18.8537 21.5303 18.5622C24.4899 18.2724 26.5939 19.2878 27.5205 20.5711C28.4936 21.9183 29.0435 23.7236 29.2506 25.6275C29.4602 27.5547 29.3326 29.7042 28.8408 31.8374C27.8641 36.0782 25.3838 40.4923 20.9157 42.8718C20.6724 43.0016 20.4269 43.1318 20.1795 43.2624H25.2001C27.1636 40.797 28.735 38.3475 29.2987 36.428C29.9346 34.2609 30.1958 31.9636 30.4397 29.816L30.4401 29.8156V29.8148C30.5277 29.0437 30.6133 28.2914 30.713 27.5714C30.8862 26.324 31.1253 25.0022 31.6384 24.049C31.9102 23.5447 32.3418 22.9832 33.0363 22.659C33.7675 22.3176 34.5285 22.3595 35.196 22.5795C37.067 23.1965 39.5541 23.3243 43.7698 22.2796V19.4303C40.5187 20.3363 36.9741 20.7485 33.8276 19.8378C31.7975 19.2501 29.8704 17.8418 28.131 16.1386C26.3698 14.4143 24.6813 12.268 23.143 10.0209C21.8271 8.0987 20.6021 6.07435 19.5182 4.1289ZM43.7698 25.5653C39.7536 26.4745 36.8655 26.4366 34.4228 25.689C34.2423 26.1071 34.0739 26.8483 33.9132 28.0059C33.8333 28.5809 33.7594 29.2346 33.679 29.9414V29.9418C33.4295 32.1445 33.1215 34.8626 32.4003 37.3185C31.848 39.2009 30.6529 41.269 29.2324 43.2624H32.4819C33.0815 41.7881 33.6334 40.3841 34.0671 39.2041C34.533 37.9358 34.8245 37.0238 34.9186 36.5598C35.0966 35.6785 35.4362 34.7301 36.2328 34.058C37.0613 33.3584 38.0788 33.2083 39.0321 33.2562C39.9708 33.3037 41.0715 33.5537 42.313 33.9059C42.7644 34.0337 43.2497 34.1798 43.7698 34.3423V25.5653ZM43.6648 37.6635C42.8218 37.3927 42.0796 37.1631 41.4223 36.9767C40.2228 36.636 39.4181 36.4743 38.8681 36.4468C38.5128 36.4288 38.3691 36.4723 38.3279 36.4903C38.3045 36.5174 38.1898 36.672 38.0861 37.1863C37.9375 37.9202 37.5616 39.0463 37.1029 40.295C36.7738 41.1911 36.3826 42.2014 35.9591 43.2624H36.9059C40.2866 43.2624 43.0963 40.8453 43.6648 37.6635ZM13.21 43.2624C15.3253 42.1834 17.4604 41.0837 19.3844 40.059C22.7897 38.2457 24.8517 34.7736 25.6915 31.1278C26.1086 29.3177 26.2079 27.5235 26.0391 25.9694C25.8675 24.3916 25.4335 23.1773 24.892 22.4278C24.8097 22.3136 23.9864 21.5321 21.8485 21.7414C19.7278 21.949 16.386 23.1506 11.6802 26.9321C8.73438 29.2993 6.26919 30.9209 4.20151 31.9931V35.5958C4.71121 35.1346 5.28677 34.7492 5.81868 34.4206C6.36057 34.0856 6.95102 33.7561 7.5313 33.4343L7.67512 33.3544C8.21717 33.0541 8.75518 32.7558 9.28943 32.4396C10.4581 31.7471 11.509 31.024 12.317 30.1826C13.716 28.7259 15.7354 26.9876 17.6338 25.8009C18.5703 25.215 19.5818 24.6971 20.5361 24.4595C21.4318 24.2363 22.8204 24.1457 23.7882 25.2398C24.7091 26.2808 25.0907 27.8422 24.42 29.8687C23.7829 31.7939 22.1828 34.2241 19.0899 37.3852C15.8795 40.666 12.669 42.3096 9.96225 42.8335C9.65697 42.8926 9.35666 42.9373 9.0624 42.9689C9.69606 43.1597 10.3686 43.2624 11.0654 43.2624H13.21ZM4.20151 18.5739C5.76643 17.9319 7.32551 16.7583 8.7381 14.7859C11.5273 10.8914 12.2014 7.11506 12.0094 4.1289H11.0654C7.27455 4.1289 4.20151 7.16821 4.20151 10.9174V18.5739ZM38.3247 36.4919C38.317 36.4955 38.3138 36.4979 38.3142 36.4979C38.3146 36.4983 38.3162 36.4975 38.319 36.4955L38.321 36.4943L38.3247 36.4919ZM19.3596 28.5011C17.7331 29.5177 15.9164 31.0735 14.6589 32.3829C13.5494 33.5381 12.203 34.4374 10.9491 35.1801C10.3729 35.5211 9.7951 35.8414 9.25955 36.1385L9.11121 36.2207C8.52431 36.5462 7.99809 36.8405 7.53054 37.1296C6.52235 37.7525 6.10091 38.1718 5.9688 38.4398C5.93093 38.5168 5.9264 38.5608 5.93811 38.6278C5.95471 38.7237 6.02423 38.9445 6.30085 39.3091L6.32774 39.3446L6.35261 39.3814C6.35415 39.3834 6.39053 39.4333 6.50612 39.5032C6.62551 39.5754 6.81031 39.6569 7.07279 39.7208C7.60031 39.8494 8.36817 39.8865 9.34208 39.698C11.2787 39.3235 13.9228 38.072 16.7688 35.1633C19.7324 32.1349 20.9377 30.1207 21.3503 28.8752C21.5958 28.1333 21.5453 27.7316 21.467 27.5263C21.4274 27.5335 21.3806 27.5435 21.3252 27.5575C20.8588 27.6737 20.1855 27.9847 19.3596 28.5011ZM21.6406 27.5111C21.6398 27.5123 21.6301 27.5123 21.6139 27.5091C21.6329 27.5087 21.6414 27.5103 21.6406 27.5111Z" fill="#5F6177"/>
</svg>
