<svg width="38" height="37" viewBox="0 0 38 37" fill="none" xmlns="http://www.w3.org/2000/svg">
<path d="M5.3235 4.09019C7.85759 1.67076 11.2985 0.258584 14.7861 0.0829276C15.9797 0.0829276 17.1768 0.090089 18.3704 0.0793457C18.3095 1.35895 18.3704 2.64214 18.3345 3.92169C18.1661 6.78197 17.1087 9.57772 15.3273 11.8215C13.0118 14.8395 9.47054 16.8646 5.71062 17.3879C4.06902 17.6532 2.40228 17.4847 0.749935 17.5313C0.778584 16.1227 0.688995 14.7105 0.800131 13.3054C1.12273 9.82148 2.76792 6.48449 5.3235 4.09019Z" fill="#5F6177"/>
<path d="M19.4761 0.0793457C20.7557 0.0936701 22.0353 0.0721828 23.3185 0.0865072C26.5121 0.312299 29.6627 1.53813 32.0676 3.66367C34.72 5.93968 36.5373 9.19424 37.0034 12.671C37.2074 14.2839 37.0787 15.9148 37.1576 17.5349C36.0389 17.5313 34.9246 17.5277 33.8059 17.5349C31.057 17.4596 28.3544 16.5707 26.0533 15.0725C24.9923 14.3126 23.9027 13.542 23.107 12.4882C21.3614 10.5384 20.1751 8.09029 19.727 5.50958C19.3901 3.71739 19.5263 1.88944 19.4761 0.0793457Z" fill="#5F6177"/>
<path d="M0.752745 18.5601C1.88899 18.6246 3.02881 18.5063 4.16141 18.6317C9.01096 18.7357 13.7172 21.4597 16.2298 25.6068C17.6707 27.9294 18.4449 30.6822 18.3445 33.4172C18.3409 34.3131 18.3553 35.2054 18.3302 36.0982C16.5309 36.0442 14.7136 36.1911 12.9322 35.8433C8.97515 35.1768 5.33711 32.8218 3.14705 29.4599C1.48754 27.0154 0.659573 24.0297 0.745581 21.0798C0.745581 20.2375 0.745582 19.3988 0.752745 18.5601Z" fill="#5F6177"/>
<path d="M31.1013 18.9397C33.0515 18.506 35.0618 18.5777 37.0442 18.5777L37.1304 18.6637C37.0873 20.5383 37.2341 22.4344 36.8578 24.2875C36.0657 28.4453 33.3131 32.1589 29.6104 34.1983C27.3057 35.4814 24.6604 36.112 22.026 36.0835C21.1837 36.0872 20.3377 36.069 19.4955 36.0944C19.4955 34.5424 19.4309 32.9831 19.6066 31.4384C20.0152 27.6997 22.0367 24.2194 24.9436 21.8681C26.7429 20.4487 28.8576 19.42 31.1013 18.9397Z" fill="#5F6177"/>
</svg>
