<svg width="37" height="38" viewBox="0 0 37 38" fill="none" xmlns="http://www.w3.org/2000/svg">
<path d="M10.1277 2.25402C10.1277 1.83304 10.4411 1.47802 10.8588 1.42577L15.8669 0.79978C16.365 0.737516 16.805 1.12592 16.805 1.62799V18.0998C16.805 18.6019 16.365 18.9904 15.8669 18.9281L10.8588 18.3021C10.4411 18.2499 10.1277 17.8948 10.1277 17.4739V2.25402Z" fill="#5F6177"/>
<path d="M0.111328 4.34065C0.111328 3.91972 0.424776 3.56464 0.842471 3.51245L5.85051 2.88646C6.34873 2.82414 6.78873 3.2126 6.78873 3.71467V16.8478C6.78873 17.3499 6.34873 17.7383 5.85051 17.676L0.842471 17.05C0.424776 16.9978 0.111328 16.6427 0.111328 16.2218V4.34065Z" fill="#5F6177"/>
<path d="M26.1888 2.19385C26.5601 2.28676 26.8211 2.6206 26.8211 3.00359V9.96182C26.8211 10.3828 26.5075 10.7378 26.0897 10.79L21.0817 11.4161C20.5836 11.4783 20.1436 11.0899 20.1436 10.5878V1.75157C20.1436 1.20859 20.6539 0.810162 21.1807 0.941824L26.1888 2.19385Z" fill="#5F6177"/>
<path d="M36.0026 5.09028C36.0026 4.70728 35.7416 4.3734 35.3704 4.28053L30.3624 3.02851C29.8353 2.8968 29.325 3.29522 29.325 3.83826V10.1705C29.325 10.6725 29.765 11.061 30.2632 10.9987L35.2712 10.3727C35.689 10.3205 36.0026 9.9654 36.0026 9.54446V5.09028Z" fill="#5F6177"/>
<path d="M36.0025 13.6199L19.7262 14.0372C19.9617 17.0986 22.5145 19.4626 25.5849 19.4626H29.3248V23.0148L0.111328 20.2973V37.6983L36.0025 35.1946V13.6199Z" fill="#5F6177"/>
</svg>
