<svg width="365" height="198" viewBox="0 0 365 198" fill="none" xmlns="http://www.w3.org/2000/svg">
<mask id="mask0_112_279" style="mask-type:alpha" maskUnits="userSpaceOnUse" x="0" y="0" width="365" height="198">
<rect width="365" height="198" fill="#F5F5F8"/>
</mask>
<g mask="url(#mask0_112_279)">
<mask id="mask1_112_279" style="mask-type:alpha" maskUnits="userSpaceOnUse" x="-113" y="23" width="570" height="175">
<path d="M-112.537 23.4629H456.537V163C456.537 182.074 441.074 197.537 422 197.537H-78C-97.0743 197.537 -112.537 182.074 -112.537 163V23.4629Z" fill="white" stroke="#F7F7F7" stroke-width="0.925743"/>
</mask>
<g mask="url(#mask1_112_279)">
<path d="M-223.692 292.796C-254.552 302.593 -308.089 279.904 -308.089 279.904V395.053H594.533V113.424C559.823 102.931 437.226 23.1631 416.231 54.0076C352.131 148.178 275.779 45.4308 204.704 75.308C132.187 105.791 115.035 160.069 36.9778 163.312C0.834229 164.814 6.3266 264.394 -29.7921 266.451C-66.6716 268.551 -100.637 183.757 -135.556 196.384C-172.885 209.882 -185.9 280.799 -223.692 292.796Z" fill="url(#paint0_linear_112_279)"/>
<path d="M-308.089 272.972C-308.089 272.972 -254.571 294.986 -223.722 285.481C-185.944 273.841 -172.933 205.034 -135.617 191.938C-100.711 179.687 -66.7579 261.957 -29.8916 259.92C6.21425 257.924 0.723797 161.307 36.8544 159.85C114.884 156.703 132.029 104.041 204.52 74.4646C275.57 45.4764 351.896 145.166 415.972 53.798C436.959 23.8713 558.593 102.212 593.29 112.394" stroke="url(#paint1_linear_112_279)" stroke-width="13.8861" stroke-linecap="round" stroke-linejoin="round"/>
<g filter="url(#filter0_d_112_279)">
<rect x="208" y="39" width="128.187" height="90.6146" rx="13.2607" fill="white"/>
</g>
<path d="M237.754 72.4712L242.316 60.0946H243.889L248.433 72.4712H246.86L245.728 69.2886H240.459L239.31 72.4712H237.754ZM240.901 68.0863H245.286L243.094 61.9687L240.901 68.0863ZM250.273 72.4712V60.0946H254.34C255.306 60.0946 256.102 60.2537 256.727 60.5719C257.352 60.8902 257.811 61.3204 258.106 61.8626C258.412 62.4049 258.566 63.0178 258.566 63.7015C258.566 64.3733 258.418 64.9804 258.124 65.5226C257.829 66.0648 257.369 66.5009 256.745 66.831C256.12 67.1492 255.318 67.3084 254.34 67.3084H251.759V72.4712H250.273ZM251.759 66.053H254.305C255.295 66.053 255.996 65.8467 256.409 65.4342C256.833 65.0098 257.045 64.4323 257.045 63.7015C257.045 62.9589 256.833 62.3813 256.409 61.9687C255.996 61.5444 255.295 61.3322 254.305 61.3322H251.759V66.053ZM260.512 72.4712V60.0946H261.998V72.4712H260.512ZM274.729 72.6834C273.515 72.6834 272.466 72.4181 271.582 71.8877C270.71 71.3455 270.032 70.597 269.549 69.6422C269.065 68.6757 268.824 67.5559 268.824 66.2829C268.824 65.0216 269.065 63.9136 269.549 62.9589C270.032 61.9923 270.71 61.2379 271.582 60.6957C272.466 60.1535 273.515 59.8824 274.729 59.8824C276.144 59.8824 277.293 60.2242 278.177 60.9079C279.073 61.5798 279.644 62.5227 279.892 63.7368H278.248C278.059 62.9707 277.67 62.3577 277.081 61.898C276.503 61.4265 275.719 61.1908 274.729 61.1908C273.845 61.1908 273.073 61.3971 272.413 61.8096C271.753 62.2104 271.24 62.7938 270.875 63.56C270.521 64.3144 270.344 65.222 270.344 66.2829C270.344 67.3437 270.521 68.2572 270.875 69.0234C271.24 69.7778 271.753 70.3613 272.413 70.7738C273.073 71.1746 273.845 71.375 274.729 71.375C275.719 71.375 276.503 71.151 277.081 70.7031C277.67 70.2434 278.059 69.6364 278.248 68.882H279.892C279.644 70.0725 279.073 71.0037 278.177 71.6756C277.293 72.3474 276.144 72.6834 274.729 72.6834ZM284.855 72.6834C284.125 72.6834 283.518 72.5596 283.034 72.3121C282.551 72.0645 282.191 71.7345 281.956 71.3219C281.72 70.9094 281.602 70.4615 281.602 69.9782C281.602 69.0824 281.944 68.3928 282.628 67.9095C283.311 67.4262 284.242 67.1846 285.421 67.1846H287.79V67.0785C287.79 66.3123 287.59 65.7348 287.189 65.3458C286.788 64.945 286.252 64.7446 285.58 64.7446C285.003 64.7446 284.502 64.892 284.077 65.1867C283.665 65.4696 283.406 65.888 283.299 66.442H281.779C281.838 65.8055 282.05 65.2692 282.415 64.833C282.793 64.3969 283.258 64.0669 283.812 63.8429C284.366 63.6072 284.956 63.4893 285.58 63.4893C286.806 63.4893 287.726 63.8193 288.339 64.4794C288.963 65.1277 289.276 65.9941 289.276 67.0785V72.4712H287.95L287.861 70.8976C287.614 71.3927 287.248 71.817 286.765 72.1706C286.293 72.5124 285.657 72.6834 284.855 72.6834ZM285.085 71.428C285.651 71.428 286.134 71.2807 286.535 70.986C286.948 70.6913 287.26 70.3082 287.472 69.8367C287.684 69.3652 287.79 68.8702 287.79 68.3515V68.3339H285.545C284.673 68.3339 284.054 68.4871 283.688 68.7936C283.335 69.0882 283.158 69.4595 283.158 69.9075C283.158 70.3672 283.323 70.7385 283.653 71.0214C283.995 71.2925 284.472 71.428 285.085 71.428ZM291.504 72.4712V59.7409H292.989V72.4712H291.504ZM295.423 72.4712V59.7409H296.908V72.4712H295.423ZM302.702 72.6834C301.653 72.6834 300.781 72.4181 300.085 71.8877C299.39 71.3573 298.983 70.6383 298.865 69.7307H300.386C300.48 70.1904 300.722 70.5911 301.111 70.933C301.512 71.263 302.048 71.428 302.72 71.428C303.344 71.428 303.804 71.2984 304.099 71.039C304.394 70.7679 304.541 70.4497 304.541 70.0843C304.541 69.5538 304.346 69.2002 303.957 69.0234C303.58 68.8466 303.044 68.6875 302.348 68.546C301.877 68.4517 301.405 68.3162 300.934 68.1394C300.462 67.9626 300.068 67.715 299.749 67.3968C299.431 67.0667 299.272 66.6365 299.272 66.1061C299.272 65.3399 299.555 64.7152 300.121 64.2319C300.698 63.7368 301.476 63.4893 302.454 63.4893C303.386 63.4893 304.146 63.725 304.735 64.1965C305.336 64.6562 305.684 65.3163 305.779 66.1768H304.311C304.252 65.7289 304.058 65.3811 303.728 65.1336C303.409 64.8743 302.979 64.7446 302.437 64.7446C301.906 64.7446 301.494 64.8566 301.199 65.0806C300.916 65.3045 300.775 65.5992 300.775 65.9646C300.775 66.3182 300.958 66.5952 301.323 66.7956C301.7 66.996 302.207 67.1669 302.843 67.3084C303.386 67.4262 303.898 67.5736 304.382 67.7504C304.877 67.9154 305.278 68.1688 305.584 68.5107C305.902 68.8407 306.061 69.324 306.061 69.9605C306.073 70.7502 305.773 71.4044 305.16 71.9231C304.559 72.4299 303.739 72.6834 302.702 72.6834Z" fill="#92959E"/>
<path d="M248.972 108.517L255.116 94.6371H246.629V93.0458H257.017V94.4382L250.939 108.517H248.972ZM264.087 108.782C263.026 108.782 262.105 108.59 261.324 108.207C260.543 107.824 259.917 107.301 259.446 106.638C258.989 105.96 258.709 105.194 258.606 104.339H260.418C260.595 105.194 261.007 105.887 261.656 106.417C262.304 106.933 263.122 107.191 264.109 107.191C264.846 107.191 265.479 107.021 266.01 106.682C266.54 106.329 266.945 105.857 267.225 105.268C267.52 104.678 267.667 104.023 267.667 103.301C267.667 102.151 267.343 101.223 266.695 100.516C266.047 99.8088 265.207 99.4551 264.175 99.4551C263.321 99.4551 262.591 99.6467 261.987 100.03C261.383 100.413 260.941 100.914 260.661 101.533H258.893L260.219 93.0458H268.33V94.6592H261.656L260.75 99.3667C261.103 98.9394 261.589 98.5858 262.208 98.3059C262.842 98.0259 263.564 97.886 264.374 97.886C265.391 97.886 266.275 98.1217 267.026 98.5932C267.793 99.0647 268.389 99.7056 268.817 100.516C269.244 101.326 269.457 102.247 269.457 103.279C269.457 104.266 269.244 105.179 268.817 106.019C268.404 106.859 267.793 107.529 266.982 108.03C266.187 108.531 265.221 108.782 264.087 108.782ZM279.366 108.517V105.201H271.52V103.765L279.034 93.0458H281.2V103.566H283.498V105.201H281.2V108.517H279.366ZM273.575 103.566H279.454V95.1012L273.575 103.566ZM291.31 108.782C290.191 108.782 289.248 108.576 288.482 108.163C287.715 107.736 287.097 107.168 286.625 106.461C286.168 105.754 285.829 104.966 285.608 104.096C285.402 103.212 285.299 102.314 285.299 101.4C285.299 99.6909 285.535 98.1954 286.006 96.9135C286.478 95.6169 287.155 94.6076 288.04 93.8856C288.938 93.1489 290.021 92.7806 291.288 92.7806C292.261 92.7806 293.093 92.9721 293.786 93.3552C294.478 93.7383 295.023 94.254 295.421 94.9023C295.834 95.5359 296.092 96.2431 296.195 97.024H294.471C294.309 96.1842 293.948 95.5359 293.388 95.0791C292.828 94.6224 292.121 94.394 291.266 94.394C290.102 94.394 289.122 94.9465 288.327 96.0516C287.546 97.1419 287.126 98.851 287.067 101.179C287.421 100.487 287.981 99.8898 288.747 99.3888C289.528 98.8731 290.463 98.6153 291.554 98.6153C292.438 98.6153 293.263 98.8216 294.029 99.2341C294.81 99.6467 295.443 100.229 295.93 100.98C296.416 101.717 296.659 102.586 296.659 103.588C296.659 104.457 296.445 105.29 296.018 106.085C295.591 106.881 294.972 107.529 294.162 108.03C293.366 108.531 292.416 108.782 291.31 108.782ZM291.178 107.146C291.87 107.146 292.489 106.999 293.034 106.704C293.58 106.41 294.007 106.004 294.316 105.489C294.626 104.958 294.78 104.354 294.78 103.676C294.78 102.63 294.434 101.798 293.742 101.179C293.064 100.545 292.209 100.229 291.178 100.229C290.485 100.229 289.867 100.391 289.321 100.715C288.776 101.024 288.342 101.444 288.017 101.975C287.708 102.505 287.553 103.08 287.553 103.699C287.553 104.362 287.708 104.958 288.017 105.489C288.342 106.004 288.776 106.41 289.321 106.704C289.867 106.999 290.485 107.146 291.178 107.146Z" fill="#15192C"/>
</g>
</g>
<defs>
<filter id="filter0_d_112_279" x="177.058" y="27.9494" width="190.07" height="152.498" filterUnits="userSpaceOnUse" color-interpolation-filters="sRGB">
<feFlood flood-opacity="0" result="BackgroundImageFix"/>
<feColorMatrix in="SourceAlpha" type="matrix" values="0 0 0 0 0 0 0 0 0 0 0 0 0 0 0 0 0 0 127 0" result="hardAlpha"/>
<feMorphology radius="4.42023" operator="erode" in="SourceAlpha" result="effect1_dropShadow_112_279"/>
<feOffset dy="19.891"/>
<feGaussianBlur stdDeviation="17.6809"/>
<feColorMatrix type="matrix" values="0 0 0 0 0.815686 0 0 0 0 0.823529 0 0 0 0 0.854902 0 0 0 0.15 0"/>
<feBlend mode="normal" in2="BackgroundImageFix" result="effect1_dropShadow_112_279"/>
<feBlend mode="normal" in="SourceGraphic" in2="effect1_dropShadow_112_279" result="shape"/>
</filter>
<linearGradient id="paint0_linear_112_279" x1="145.946" y1="-0.124556" x2="145.946" y2="388.327" gradientUnits="userSpaceOnUse">
<stop stop-color="#F3F0FF"/>
<stop offset="1" stop-color="#F1EDFF" stop-opacity="0"/>
</linearGradient>
<linearGradient id="paint1_linear_112_279" x1="-229.434" y1="167.444" x2="516.993" y2="168.9" gradientUnits="userSpaceOnUse">
<stop stop-color="#EEC5BD"/>
<stop offset="0.338542" stop-color="#F3B1A5"/>
<stop offset="0.6875" stop-color="#C6CAF6"/>
<stop offset="1" stop-color="#DAD9E9"/>
</linearGradient>
</defs>
</svg>
