<svg width="155" height="155" viewBox="0 0 155 155" fill="none" xmlns="http://www.w3.org/2000/svg">
<rect width="155" height="155" fill="#60AEF8"/>
<path d="M44.6571 43.9604C50.7656 38.1282 59.0602 34.7241 67.4671 34.3007C70.3443 34.3007 73.23 34.318 76.1073 34.2921C75.9604 37.3766 76.1073 40.4698 76.0208 43.5542C75.6148 50.4491 73.0659 57.1884 68.7717 62.5971C63.1902 69.8722 54.6537 74.7538 45.5902 76.0153C41.6331 76.6547 37.6153 76.2485 33.6322 76.3609C33.7013 72.9653 33.4853 69.5612 33.7532 66.1742C34.5309 57.776 38.4967 49.732 44.6571 43.9604Z" fill="white"/>
<path d="M78.772 34.2921C81.8565 34.3266 84.9411 34.2748 88.0343 34.3093C95.7327 34.8536 103.327 37.8085 109.124 42.9323C115.518 48.4187 119.899 56.264 121.023 64.6449C121.514 68.5329 121.204 72.4642 121.394 76.3695C118.698 76.3609 116.011 76.3523 113.315 76.3695C106.688 76.1881 100.174 74.0454 94.6267 70.4338C92.0692 68.6021 89.4425 66.7445 87.5245 64.2042C83.3167 59.5041 80.4569 53.6028 79.3768 47.3819C78.5646 43.0617 78.893 38.6554 78.772 34.2921Z" fill="white"/>
<path d="M33.6379 78.8402C36.3769 78.9957 39.1245 78.7106 41.8547 79.013C53.5447 79.2635 64.8894 85.83 70.946 95.8267C74.4195 101.425 76.2857 108.061 76.0438 114.654C76.035 116.814 76.0697 118.965 76.0092 121.117C71.6719 120.987 67.2913 121.341 62.9971 120.502C53.4584 118.896 44.6887 113.219 39.4095 105.115C35.4091 99.2223 33.4133 92.025 33.6206 84.9142C33.6206 82.8837 33.6206 80.862 33.6379 78.8402Z" fill="white"/>
<path d="M106.795 79.7558C111.496 78.7102 116.342 78.883 121.12 78.883L121.328 79.0905C121.224 83.6092 121.578 88.1799 120.671 92.6468C118.762 102.669 112.127 111.621 103.201 116.537C97.6453 119.63 91.2689 121.151 84.9183 121.082C82.888 121.091 80.8488 121.047 78.8184 121.108C78.8184 117.367 78.6629 113.608 79.0863 109.884C80.0713 100.872 84.9442 92.4827 91.9514 86.8148C96.2887 83.3933 101.386 80.9136 106.795 79.7558Z" fill="white"/>
</svg>
