<svg width="155" height="155" viewBox="0 0 155 155" fill="none" xmlns="http://www.w3.org/2000/svg">
<rect width="155" height="155" fill="#8FD5F5"/>
<path fill-rule="evenodd" clip-rule="evenodd" d="M74.9162 91.8156L74.8814 119.336L80.6992 119.344L80.7342 91.6952L91.3467 117.226L96.7188 114.993L86.1785 89.6357L105.571 109.078L109.69 104.969L90.2149 85.4442L115.686 96.0151L117.916 90.6416L92.4421 80.0696H120.022V74.2518H92.5077L117.939 63.7486L115.718 58.3714L90.3959 68.8295L109.868 49.5568L105.775 45.4219L86.0619 64.9334L96.6851 39.3117L91.3109 37.0835L80.7711 62.504L80.806 34.9853L74.9882 34.9779L74.9532 62.6308L64.3389 37.096L58.9667 39.3291L69.5054 64.6821L50.1157 45.2432L45.9967 49.3517L65.4721 68.8767L40.001 58.3058L37.7709 63.6792L63.2461 74.2518H35.6636V80.0696H63.1802L37.7478 90.5732L39.9686 95.9505L65.2904 85.4925L45.8188 104.765L49.9115 108.9L69.6245 89.3884L59.0017 115.009L64.3759 117.238L74.9162 91.8156Z" fill="white"/>
</svg>
