<svg width="24" height="24" viewBox="0 0 24 24" fill="none" xmlns="http://www.w3.org/2000/svg">
<g clip-path="url(#clip0)">
<path d="M16.98 0.000203233C17.9168 -0.0321436 18.8505 0.126742 19.7239 0.467164C20.5973 0.807585 21.3922 1.3224 22.06 1.9802C22.7038 2.64801 23.2071 3.43809 23.5404 4.30376C23.8736 5.16942 24.0299 6.0931 24 7.0202V16.9802C24 19.0602 23.32 20.8502 22.02 22.1102C20.6409 23.3834 18.8159 24.0624 16.94 24.0002H7.06C5.19976 24.0578 3.39201 23.3786 2.03 22.1102C1.35485 21.434 0.826185 20.6259 0.476935 19.7365C0.127686 18.847 -0.0346623 17.8952 4.17558e-06 16.9402V7.0202C4.17558e-06 2.8002 2.8 0.000203233 7.02 0.000203233H16.98ZM17.03 2.2302H7.06C5.61 2.2302 4.36 2.6602 3.53 3.4802C3.0865 3.95259 2.74279 4.50955 2.51943 5.11779C2.29606 5.72603 2.19763 6.37306 2.23 7.0202V16.9402C2.23 18.4402 2.66 19.6402 3.53 20.5202C4.50032 21.3784 5.76584 21.8265 7.06 21.7702H16.94C18.2342 21.8265 19.4997 21.3784 20.47 20.5202C20.9359 20.0593 21.3009 19.5067 21.5419 18.8973C21.7829 18.2879 21.8946 17.6351 21.87 16.9802V7.0202C21.9023 5.73287 21.4366 4.48273 20.57 3.5302C20.0976 3.0867 19.5407 2.74299 18.9324 2.51962C18.3242 2.29626 17.6772 2.19782 17.03 2.2302ZM12 5.7602C15.39 5.7602 18.2 8.5602 18.2 11.9602C18.2 13.6045 17.5468 15.1815 16.3841 16.3443C15.2213 17.507 13.6443 18.1602 12 18.1602C10.3557 18.1602 8.77867 17.507 7.61594 16.3443C6.45322 15.1815 5.8 13.6045 5.8 11.9602C5.8 10.3159 6.45322 8.73887 7.61594 7.57614C8.77867 6.41342 10.3557 5.7602 12 5.7602ZM12 7.9802C10.9487 7.98546 9.94198 8.40541 9.1986 9.1488C8.45521 9.89218 8.03526 10.8989 8.03 11.9502C8.03526 13.0015 8.45521 14.0082 9.1986 14.7516C9.94198 15.495 10.9487 15.9149 12 15.9202C13.0513 15.9149 14.058 15.495 14.8014 14.7516C15.5448 14.0082 15.9647 13.0015 15.97 11.9502C15.9647 10.8989 15.5448 9.89218 14.8014 9.1488C14.058 8.40541 13.0513 7.98546 12 7.9802ZM18.44 4.2102C18.8113 4.2102 19.1674 4.3577 19.43 4.62025C19.6925 4.8828 19.84 5.2389 19.84 5.6102C19.84 5.98151 19.6925 6.3376 19.43 6.60015C19.1674 6.8627 18.8113 7.0102 18.44 7.0102C18.0687 7.0102 17.7126 6.8627 17.4501 6.60015C17.1875 6.3376 17.04 5.98151 17.04 5.6102C17.04 5.2389 17.1875 4.8828 17.4501 4.62025C17.7126 4.3577 18.0687 4.2102 18.44 4.2102Z" fill="black"/>
</g>
<defs>
<clipPath id="clip0">
<rect width="24" height="24" fill="white"/>
</clipPath>
</defs>
</svg>
